<svg width="129" height="15" viewBox="0 0 129 15" fill="none" xmlns="http://www.w3.org/2000/svg">
<path d="M5.40039 9.11133H1.69922V7.16797H5.40039C6.04492 7.16797 6.56576 7.0638 6.96289 6.85547C7.36003 6.64714 7.64974 6.36068 7.83203 5.99609C8.02083 5.625 8.11523 5.20182 8.11523 4.72656C8.11523 4.27734 8.02083 3.85742 7.83203 3.4668C7.64974 3.06966 7.36003 2.75065 6.96289 2.50977C6.56576 2.26888 6.04492 2.14844 5.40039 2.14844H2.45117V14.4141H0V0.195312H5.40039C6.50065 0.195312 7.4349 0.390625 8.20312 0.78125C8.97786 1.16536 9.56706 1.69922 9.9707 2.38281C10.3743 3.0599 10.5762 3.83464 10.5762 4.70703C10.5762 5.625 10.3743 6.41276 9.9707 7.07031C9.56706 7.72786 8.97786 8.23242 8.20312 8.58398C7.4349 8.93555 6.50065 9.11133 5.40039 9.11133ZM16.8262 2.08984L12.5781 14.4141H10.0098L15.3613 0.195312H17.002L16.8262 2.08984ZM20.3809 14.4141L16.123 2.08984L15.9375 0.195312H17.5879L22.959 14.4141H20.3809ZM20.1758 9.14062V11.084H12.4414V9.14062H20.1758ZM27.168 0.195312V14.4141H24.7168V0.195312H27.168ZM41.4941 0.195312V14.4141H39.043L32.666 4.22852V14.4141H30.2148V0.195312H32.666L39.0625 10.4004V0.195312H41.4941ZM49.9707 0.195312V14.4141H47.5391V0.195312H49.9707ZM54.4336 0.195312V2.14844H43.1152V0.195312H54.4336ZM68.3008 10.752C68.3008 10.459 68.2552 10.1986 68.1641 9.9707C68.0794 9.74284 67.9264 9.53451 67.7051 9.3457C67.4837 9.1569 67.1712 8.97461 66.7676 8.79883C66.3704 8.61654 65.8626 8.43099 65.2441 8.24219C64.5671 8.03385 63.9421 7.80273 63.3691 7.54883C62.8027 7.28841 62.3079 6.98893 61.8848 6.65039C61.4616 6.30534 61.1328 5.91146 60.8984 5.46875C60.6641 5.01953 60.5469 4.50195 60.5469 3.91602C60.5469 3.33659 60.6673 2.80924 60.9082 2.33398C61.1556 1.85872 61.5039 1.44857 61.9531 1.10352C62.4089 0.751953 62.946 0.481771 63.5645 0.292969C64.1829 0.0976562 64.8665 0 65.6152 0C66.6699 0 67.5781 0.195312 68.3398 0.585938C69.1081 0.976562 69.6973 1.50065 70.1074 2.1582C70.5241 2.81576 70.7324 3.54167 70.7324 4.33594H68.3008C68.3008 3.86719 68.1999 3.45378 67.998 3.0957C67.8027 2.73112 67.5033 2.44466 67.0996 2.23633C66.7025 2.02799 66.1979 1.92383 65.5859 1.92383C65.0065 1.92383 64.5247 2.01172 64.1406 2.1875C63.7565 2.36328 63.4701 2.60091 63.2812 2.90039C63.0924 3.19987 62.998 3.53841 62.998 3.91602C62.998 4.18294 63.0599 4.42708 63.1836 4.64844C63.3073 4.86328 63.4961 5.0651 63.75 5.25391C64.0039 5.4362 64.3229 5.60872 64.707 5.77148C65.0911 5.93424 65.5436 6.09049 66.0645 6.24023C66.8522 6.47461 67.5391 6.73503 68.125 7.02148C68.7109 7.30143 69.1992 7.62044 69.5898 7.97852C69.9805 8.33659 70.2734 8.74349 70.4688 9.19922C70.6641 9.64844 70.7617 10.1595 70.7617 10.7324C70.7617 11.3314 70.6413 11.8717 70.4004 12.3535C70.1595 12.8288 69.8145 13.2357 69.3652 13.5742C68.9225 13.9062 68.3887 14.1634 67.7637 14.3457C67.1452 14.5215 66.4551 14.6094 65.6934 14.6094C65.0098 14.6094 64.3359 14.5182 63.6719 14.3359C63.0143 14.1536 62.4154 13.877 61.875 13.5059C61.3346 13.1283 60.9049 12.6595 60.5859 12.0996C60.2669 11.5332 60.1074 10.8724 60.1074 10.1172H62.5586C62.5586 10.5794 62.6367 10.9733 62.793 11.2988C62.9557 11.6243 63.1803 11.8913 63.4668 12.0996C63.7533 12.3014 64.0853 12.4512 64.4629 12.5488C64.847 12.6465 65.2572 12.6953 65.6934 12.6953C66.2663 12.6953 66.7448 12.6139 67.1289 12.4512C67.5195 12.2884 67.8125 12.0605 68.0078 11.7676C68.2031 11.4746 68.3008 11.1361 68.3008 10.752ZM78.7793 0.195312V14.4141H76.3477V0.195312H78.7793ZM83.2422 0.195312V2.14844H71.9238V0.195312H83.2422ZM93.0957 0.195312H95.5371V9.69727C95.5371 10.778 95.3027 11.6829 94.834 12.4121C94.3652 13.1413 93.7272 13.6914 92.9199 14.0625C92.1191 14.4271 91.224 14.6094 90.2344 14.6094C89.2122 14.6094 88.3008 14.4271 87.5 14.0625C86.6992 13.6914 86.0677 13.1413 85.6055 12.4121C85.1497 11.6829 84.9219 10.778 84.9219 9.69727V0.195312H87.3633V9.69727C87.3633 10.3809 87.4805 10.944 87.7148 11.3867C87.9492 11.8229 88.2812 12.1452 88.7109 12.3535C89.1406 12.5618 89.6484 12.666 90.2344 12.666C90.8203 12.666 91.3249 12.5618 91.748 12.3535C92.1777 12.1452 92.5098 11.8229 92.7441 11.3867C92.9785 10.944 93.0957 10.3809 93.0957 9.69727V0.195312ZM102.334 14.4141H99.2969L99.3164 12.4707H102.334C103.213 12.4707 103.949 12.2786 104.541 11.8945C105.14 11.5104 105.589 10.9603 105.889 10.2441C106.195 9.52799 106.348 8.67513 106.348 7.68555V6.91406C106.348 6.14583 106.26 5.46549 106.084 4.87305C105.915 4.2806 105.661 3.78255 105.322 3.37891C104.99 2.97526 104.58 2.66927 104.092 2.46094C103.61 2.2526 103.053 2.14844 102.422 2.14844H99.2383V0.195312H102.422C103.366 0.195312 104.229 0.354818 105.01 0.673828C105.791 0.986328 106.465 1.4388 107.031 2.03125C107.604 2.6237 108.044 3.33333 108.35 4.16016C108.656 4.98698 108.809 5.91146 108.809 6.93359V7.68555C108.809 8.70768 108.656 9.63216 108.35 10.459C108.044 11.2858 107.604 11.9954 107.031 12.5879C106.458 13.1738 105.775 13.6263 104.98 13.9453C104.193 14.2578 103.311 14.4141 102.334 14.4141ZM100.654 0.195312V14.4141H98.2031V0.195312H100.654ZM113.887 0.195312V14.4141H111.436V0.195312H113.887ZM128.271 6.91406V7.69531C128.271 8.76953 128.132 9.73307 127.852 10.5859C127.572 11.4388 127.171 12.1647 126.65 12.7637C126.136 13.3626 125.518 13.8216 124.795 14.1406C124.072 14.4531 123.271 14.6094 122.393 14.6094C121.52 14.6094 120.723 14.4531 120 14.1406C119.284 13.8216 118.662 13.3626 118.135 12.7637C117.607 12.1647 117.197 11.4388 116.904 10.5859C116.618 9.73307 116.475 8.76953 116.475 7.69531V6.91406C116.475 5.83984 116.618 4.87956 116.904 4.0332C117.191 3.18034 117.594 2.45443 118.115 1.85547C118.643 1.25 119.264 0.791016 119.98 0.478516C120.703 0.159505 121.501 0 122.373 0C123.252 0 124.053 0.159505 124.775 0.478516C125.498 0.791016 126.12 1.25 126.641 1.85547C127.161 2.45443 127.562 3.18034 127.842 4.0332C128.128 4.87956 128.271 5.83984 128.271 6.91406ZM125.82 7.69531V6.89453C125.82 6.10026 125.742 5.40039 125.586 4.79492C125.436 4.18294 125.212 3.67188 124.912 3.26172C124.619 2.84505 124.258 2.53255 123.828 2.32422C123.398 2.10938 122.913 2.00195 122.373 2.00195C121.833 2.00195 121.351 2.10938 120.928 2.32422C120.505 2.53255 120.143 2.84505 119.844 3.26172C119.551 3.67188 119.326 4.18294 119.17 4.79492C119.014 5.40039 118.936 6.10026 118.936 6.89453V7.69531C118.936 8.48958 119.014 9.19271 119.17 9.80469C119.326 10.4167 119.554 10.9342 119.854 11.3574C120.16 11.7741 120.524 12.0898 120.947 12.3047C121.37 12.513 121.852 12.6172 122.393 12.6172C122.939 12.6172 123.424 12.513 123.848 12.3047C124.271 12.0898 124.629 11.7741 124.922 11.3574C125.215 10.9342 125.436 10.4167 125.586 9.80469C125.742 9.19271 125.82 8.48958 125.82 7.69531Z" fill="#F5F5F5"/>
</svg>
